# xmcd CD database file
#
# Track frame offsets:
#	150
#	19176
#	29547
#	40651
#	54976
#	65100
#	77437
#	89515
#	93269
#	97022
#	101696
#	108170
#	119348
#	133778
#	143302
#	158897
#
# Disc length: 2302 seconds
#
# Revision: 1
# Processed by: cddbd v1.5.1PL2 Copyright (c) Steve Scherf et al.
# Submitted via: CDex 1.51
#
DISCID=cb08fc10
DTITLE=PINK CLOUD - Kutkloud
DYEAR=1982
DGENRE=Rock
TTITLE0=Would You Like It
TTITLE1=Cats N' Rats
TTITLE2=Berkeley Boogie
TTITLE3=Low and Top
TTITLE4=Close Your Eyes
TTITLE5=Only For Love
TTITLE6=Little Harbor
TTITLE7=1/2 Who Are You ?
TTITLE8=1/2 Who Are You ?
TTITLE9=Sing, Sing, Sing,
TTITLE10=Life Of Mine
TTITLE11=Why Don't You Stop
TTITLE12=In My Pocket
TTITLE13=Be My Lady
TTITLE14=She's Wating For You
TTITLE15=Everyday, Everynight
EXTD=YEAR: 1982
EXTT0=
EXTT1=
EXTT2=
EXTT3=
EXTT4=
EXTT5=
EXTT6=
EXTT7=
EXTT8=
EXTT9=
EXTT10=
EXTT11=
EXTT12=
EXTT13=
EXTT14=
EXTT15=
PLAYORDER=
